<?xml version="1.0" encoding="UTF-8" standalone="no"?>
<!-- Created with Inkscape (http://www.inkscape.org/) -->

<svg
   width="207.83418mm"
   height="55.263905mm"
   viewBox="0 0 207.83418 55.263905"
   version="1.1"
   id="svg1"
   xml:space="preserve"
   inkscape:version="1.4 (86a8ad7, 2024-10-11)"
   sodipodi:docname="haseiq-logo.svg"
   inkscape:export-filename="haseiq-icon.png"
   inkscape:export-xdpi="119.88293"
   inkscape:export-ydpi="119.88293"
   xmlns:inkscape="http://www.inkscape.org/namespaces/inkscape"
   xmlns:sodipodi="http://sodipodi.sourceforge.net/DTD/sodipodi-0.dtd"
   xmlns="http://www.w3.org/2000/svg"
   xmlns:svg="http://www.w3.org/2000/svg"><sodipodi:namedview
     id="namedview1"
     pagecolor="#ffffff"
     bordercolor="#000000"
     borderopacity="0.25"
     inkscape:showpageshadow="2"
     inkscape:pageopacity="0.0"
     inkscape:pagecheckerboard="0"
     inkscape:deskcolor="#d1d1d1"
     inkscape:document-units="mm"
     inkscape:zoom="2.0535658"
     inkscape:cx="18.26092"
     inkscape:cy="54.295801"
     inkscape:window-width="1920"
     inkscape:window-height="1017"
     inkscape:window-x="-8"
     inkscape:window-y="-8"
     inkscape:window-maximized="1"
     inkscape:current-layer="layer1"
     inkscape:export-bgcolor="#ffffff00" /><defs
     id="defs1" /><g
     inkscape:label="Layer 1"
     inkscape:groupmode="layer"
     id="layer1"
     transform="translate(28.021316,-43.044492)"><path
       style="fill:#1a1a1a;stroke:none"
       d="m 4.9821871,47.714316 c -1.56242,4.618472 -3.35878,9.486533 -7.40834,12.498704 -8.7846001,6.534233 -20.7341701,7.044505 -24.4153601,19.251296 -1.25724,4.168984 -1.35236,8.406932 -1.0073,12.7 0.13493,1.678689 0.027,4.03649 1.62466,5.064646 1.1769,0.757382 2.88781,0.491604 4.21884,0.491604 h 8.99583 7.6729201 c 0.73446,0 2.13895,0.254159 2.73913,-0.271931 0.75269,-0.659771 -0.28165,-1.938004 -0.93604,-2.214255 -1.60264,-0.676545 -4.30775,-0.159647 -6.03643,-0.159647 v -0.264584 c 6.30572,-2.642696 7.98108,-10.748576 4.7625,-16.404166 l 6.87917,0.264583 1.54647,12.7 0.88215,5.736722 2.59846,0.613278 V 83.697649 c 0,-1.704248 -0.52493,-4.453135 0.15965,-6.029069 0.52017,-1.197444 2.60542,-2.023185 3.5341099,-2.970644 2.03349,-2.074582 3.30411,-4.606118 4.00693,-7.404453 0.5697,-2.268309 0.74777,-4.822558 0.38523,-7.14375 -0.19586,-1.254074 -1.25274,-3.239467 -0.96095,-4.45872 0.25604,-1.069819 1.85141,-0.832584 2.66462,-0.832947 2.7371,-0.0012 8.24036,-0.357879 6.03805,-4.7625 -1.14275,-2.285499 -5.16718,-5.925938 -7.62555,-6.667462 C 12.931657,42.713452 9.8240171,43.2164 7.3634371,43.2164 h -16.13959 c -3.8573901,0.0015 -10.1479401,2.537813 -8.6471301,7.616569 0.55397,1.874643 4.23391,1.723174 5.73672,1.620165 3.8073101,-0.260966 7.5635701,-1.394892 11.11250012,-2.73464 C 1.1881571,49.05324 3.0715171,47.60001 4.9821871,47.714316 M 91.838197,55.65937 c -2.02701,1.239834 -3.2511,6.347101 -4.24803,8.459113 -3.68822,7.813553 -7.35196,15.655928 -10.86915,23.547916 -1.0672,2.394613 -2.22592,4.748148 -3.29239,7.14375 -0.34479,0.774493 -1.03801,1.960192 -0.0988,2.598469 0.68857,0.467958 1.77454,0.311645 2.5607,0.311948 1.35395,5.21e-4 3.31474,0.358602 4.39462,-0.643901 1.71016,-1.587637 1.67225,-5.915558 3.86381,-6.869368 1.26237,-0.549405 3.34742,-0.159648 4.70616,-0.159648 3.61386,0 7.23476,-0.06673 10.84791,0.0012 3.477313,0.0654 3.190843,4.994107 5.195713,7.027788 1.00857,1.023057 3.02336,0.643986 4.32929,0.643901 0.76971,-4.9e-5 1.88582,0.182119 2.56152,-0.271931 0.93686,-0.62954 0.37973,-1.849689 0.0157,-2.638486 -1.0578,-2.292168 -2.08676,-4.596231 -3.16437,-6.879166 C 104.6335,79.44128 100.6994,70.87083 96.944905,62.266371 c -0.68106,-1.560822 -2.63151,-8.121003 -5.106708,-6.607029 m 36.439823,-0.155974 c -2.29195,0.357968 -4.47586,1.070223 -6.35,2.466383 -5.43489,4.048783 -5.58202,12.22861 -1.01241,16.972734 2.449,2.542519 5.85984,3.731832 8.94991,5.251038 2.62208,1.289125 6.56725,3.182962 6.41145,6.679098 -0.29261,6.565564 -8.60449,4.191964 -11.9677,2.268152 -1.06353,-0.608361 -2.84786,-2.220508 -4.09348,-1.273921 -3.31095,2.516077 -2.88655,5.782806 0.38931,7.660869 3.74089,2.144661 8.39626,3.225239 12.7,2.608679 2.36864,-0.339337 4.63599,-1.034037 6.61459,-2.418816 1.60684,-1.124597 2.87437,-2.591287 3.75439,-4.347046 4.0595,-8.099243 -2.55321,-14.715712 -9.57523,-17.726879 -3.07843,-1.320085 -8.4966,-3.053468 -8.65735,-7.143954 -0.10258,-2.610217 2.67597,-4.197754 4.95319,-4.360724 2.19931,-0.157395 4.46255,1.074405 6.35,2.047864 1.00329,0.517455 2.22015,1.51026 3.41487,1.054046 2.87756,-1.098814 3.99516,-5.267669 1.34742,-6.925918 -3.79436,-2.376365 -8.78469,-3.505733 -13.22896,-2.811605 M 39.113447,79.993455 h 19.31458 v 11.90625 c 0,1.424707 -0.41705,3.653439 0.1964,4.966654 0.75238,1.610645 7.11807,1.44373 7.43733,-0.480373 0.51258,-3.08927 0.0392,-6.64462 0.0392,-9.777948 V 67.028899 59.620566 c 0,-0.896776 0.2523,-2.305282 -0.27193,-3.090888 -0.79269,-1.18792 -6.57938,-1.097503 -7.20459,0.240901 -0.61345,1.313211 -0.1964,3.541943 -0.1964,4.966654 v 11.1125 H 39.113457 V 62.001816 c 0,-1.484276 0.38513,-3.621836 -0.1964,-5.011568 -0.64254,-1.535561 -6.50066,-1.778982 -7.42915,-0.429948 -0.54442,0.791001 -0.31195,2.153115 -0.31195,3.060266 v 7.14375 19.84375 c 0,3.097929 -0.53052,6.737904 0.0604,9.777948 0.40195,2.067748 6.93402,2.045067 7.68067,0.260704 0.60857,-1.454361 0.1964,-3.721341 0.1964,-5.276152 V 79.993483 M 160.82177,90.576816 V 79.993483 h 10.84792 c 1.19132,0 3.38329,0.415733 4.41381,-0.271931 1.15649,-0.771723 1.08613,-6.084721 -0.21967,-6.675423 -1.27589,-0.577171 -3.34755,-0.196396 -4.72331,-0.196396 h -10.31875 v -9.789584 h 12.43542 c 1.56793,0 4.06551,0.474107 5.51706,-0.159647 1.28135,-0.55945 1.26126,-5.321442 0.56101,-6.370824 -0.66299,-0.993561 -2.67716,-0.613279 -3.69682,-0.613279 h -11.1125 -7.9375 c -0.87466,0 -2.33148,-0.259633 -3.01535,0.424232 -1.30677,1.306763 -0.42423,6.521242 -0.42423,8.307018 v 23.547917 c 0,1.889678 -0.96178,7.707233 0.42423,9.064022 1.03843,1.016548 4.05012,0.460978 5.3966,0.460978 h 14.55208 c 1.35964,0 4.93586,0.631244 5.81349,-0.643901 0.71192,-1.03438 0.70787,-5.786193 -0.56101,-6.340201 -1.45151,-0.633743 -3.94915,-0.159648 -5.51706,-0.159648 h -12.43542 m -67.997913,-20.108333 5.82083,12.964583 h -11.90625 l 5.55625,-12.964583 z"
       id="path1" /></g></svg>
